# xmcd
#
# Track frame offsets:
#	180
#	13162
#	28139
#	42962
#	61983
#	76850
#	89022
#	104579
#	117443
#	135446
#	144937
#	153849
#	164039
#	178693
#	193485
#	203473
#
# Disc length: 2891 seconds
#
# Revision: 2
# Processed by: cddbd v1.5.2PL0 Copyright (c) Steve Scherf et al.
# Submitted via: audiograbber 1.83.01
#
DISCID=de0b4910
DTITLE=John Williamson - Mulga To Mangoes
DYEAR=1994
DGENRE=Country
TTITLE0=Aussie Balladeer
TTITLE1=The Farming Game
TTITLE2=Seven Year Itch
TTITLE3=River Crying Out
TTITLE4=The Buckled Bicycle
TTITLE5=All Steamy
TTITLE6=Syndey 2000
TTITLE7=Last Night A Love Song
TTITLE8=Tropical Fever
TTITLE9=Fool To Love You
TTITLE10=Little Piss Piddle
TTITLE11=Tony M' Mate
TTITLE12=Christmas Waltz
TTITLE13=At Lightning Ridge
TTITLE14=Pickin' On Murray
TTITLE15=My Oath To Australia
EXTD=
EXTT0=
EXTT1=
EXTT2=
EXTT3=
EXTT4=
EXTT5=
EXTT6=
EXTT7=
EXTT8=
EXTT9=
EXTT10=
EXTT11=
EXTT12=
EXTT13=
EXTT14=
EXTT15=
PLAYORDER=
